[2026-03-14 19:38:23] [INFO] Jarvis Desktop launcher started.
[2026-03-14 19:38:23] [INFO] Runtime log path: C:\Jarvis\logs\runtime_2026-03-14_19-38-23.txt
[2026-03-14 19:38:23] [INFO] Launcher executable: C:\Users\anden\AppData\Local\Python\pythoncore-3.14-64\pythonw.exe
[2026-03-14 19:38:23] [INFO] Root directory: C:\Jarvis
[2026-03-14 19:38:23] [INFO] Target script: C:\Jarvis\jarvis_desktop_test.py
[2026-03-14 19:38:23] [INFO] Diagnostics script: C:\Jarvis\desktop\jarvis_diagnostics.pyw
[2026-03-14 19:38:23] [INFO] Recovery attempts allowed: 3
[2026-03-14 19:38:23] [INFO] Voice hook ready: C:\Jarvis\jarvis_voice.py
[2026-03-14 19:38:23] [INFO] Starting desktop renderer process. attempt=1
[2026-03-14 19:38:23] [INFO] Child executable: C:\Users\anden\AppData\Local\Python\pythoncore-3.14-64\pythonw.exe
[2026-03-14 19:38:24] [STDOUT] Jarvis Desktop Concept 1 - Version 1.02
[2026-03-14 19:38:24] [STDOUT] Hotkey: Ctrl + Alt + End
[2026-03-14 19:38:24] [STDERR] Traceback (most recent call last):
[2026-03-14 19:38:24] [STDERR]   File "C:\Jarvis\jarvis_desktop_test.py", line 44, in <module>
[2026-03-14 19:38:24] [STDERR]     raise SystemExit(main())
[2026-03-14 19:38:24] [STDERR]                      ~~~~^^
[2026-03-14 19:38:24] [STDERR]   File "C:\Jarvis\jarvis_desktop_test.py", line 36, in main
[2026-03-14 19:38:24] [STDERR]     raise RuntimeError("Jarvis test crash triggered intentionally")
[2026-03-14 19:38:24] [STDERR] RuntimeError: Jarvis test crash triggered intentionally
[2026-03-14 19:38:24] [INFO] Desktop renderer exited. exit_code=1
[2026-03-14 19:38:24] [WARN] Recovery attempt 1/3
[2026-03-14 19:38:25] [INFO] Starting desktop renderer process. attempt=2
[2026-03-14 19:38:25] [INFO] Child executable: C:\Users\anden\AppData\Local\Python\pythoncore-3.14-64\pythonw.exe
[2026-03-14 19:38:25] [STDOUT] Jarvis Desktop Concept 1 - Version 1.02
[2026-03-14 19:38:25] [STDOUT] Hotkey: Ctrl + Alt + End
[2026-03-14 19:38:25] [STDERR] Traceback (most recent call last):
[2026-03-14 19:38:25] [STDERR]   File "C:\Jarvis\jarvis_desktop_test.py", line 44, in <module>
[2026-03-14 19:38:25] [STDERR]     raise SystemExit(main())
[2026-03-14 19:38:25] [STDERR]                      ~~~~^^
[2026-03-14 19:38:25] [STDERR]   File "C:\Jarvis\jarvis_desktop_test.py", line 36, in main
[2026-03-14 19:38:25] [STDERR]     raise RuntimeError("Jarvis test crash triggered intentionally")
[2026-03-14 19:38:25] [STDERR] RuntimeError: Jarvis test crash triggered intentionally
[2026-03-14 19:38:25] [INFO] Desktop renderer exited. exit_code=1
[2026-03-14 19:38:25] [WARN] Recovery attempt 2/3
[2026-03-14 19:38:26] [INFO] Starting desktop renderer process. attempt=3
[2026-03-14 19:38:26] [INFO] Child executable: C:\Users\anden\AppData\Local\Python\pythoncore-3.14-64\pythonw.exe
[2026-03-14 19:38:27] [STDOUT] Jarvis Desktop Concept 1 - Version 1.02
[2026-03-14 19:38:27] [STDOUT] Hotkey: Ctrl + Alt + End
[2026-03-14 19:38:27] [STDERR] Traceback (most recent call last):
[2026-03-14 19:38:27] [STDERR]   File "C:\Jarvis\jarvis_desktop_test.py", line 44, in <module>
[2026-03-14 19:38:27] [STDERR]     raise SystemExit(main())
[2026-03-14 19:38:27] [STDERR]                      ~~~~^^
[2026-03-14 19:38:27] [STDERR]   File "C:\Jarvis\jarvis_desktop_test.py", line 36, in main
[2026-03-14 19:38:27] [STDERR]     raise RuntimeError("Jarvis test crash triggered intentionally")
[2026-03-14 19:38:27] [STDERR] RuntimeError: Jarvis test crash triggered intentionally
[2026-03-14 19:38:27] [INFO] Desktop renderer exited. exit_code=1
[2026-03-14 19:38:27] [ERROR] Crash log written: C:\Jarvis\logs\crash\crash_2026-03-14_19-38-27.txt
[2026-03-14 19:38:27] [INFO] Trying voice line 'Uhm..... Sir, I seem to be malfunctioning.' using voice --text --mode
[2026-03-14 19:38:32] [VOICE_STDOUT] WARNING: malfunction post-process failed, using clean TTS: No module named 'pydub'
[2026-03-14 19:38:32] [VOICE_STDERR] [mp3 @ 000001ADF7D8DA40] Estimating duration from bitrate, this may be inaccurate
[2026-03-14 19:38:32] [VOICE_STDERR] Input #0, mp3, from 'C:/Users/anden/AppData/Local/Temp/tmp1630dql7.mp3':
[2026-03-14 19:38:32] [VOICE_STDERR]   Duration: 00:00:03.98, start: 0.000000, bitrate: 48 kb/s
[2026-03-14 19:38:32] [VOICE_STDERR]   Stream #0:0: Audio: mp3 (mp3float), 24000 Hz, mono, fltp, 48 kb/s
[2026-03-14 19:38:32] [INFO] Voice line completed: Uhm..... Sir, I seem to be malfunctioning.
[2026-03-14 19:38:32] [INFO] Failure voice step 1/3 success=True line=Uhm..... Sir, I seem to be malfunctioning.
[2026-03-14 19:38:33] [INFO] Trying voice line 'Attempting restart.' using voice --text --mode
[2026-03-14 19:38:36] [VOICE_STDOUT] WARNING: malfunction post-process failed, using clean TTS: No module named 'pydub'
[2026-03-14 19:38:36] [VOICE_STDERR] [mp3 @ 0000027866F72F40] Estimating duration from bitrate, this may be inaccurate
[2026-03-14 19:38:36] [VOICE_STDERR] Input #0, mp3, from 'C:/Users/anden/AppData/Local/Temp/tmp9_0o7ppb.mp3':
[2026-03-14 19:38:36] [VOICE_STDERR]   Duration: 00:00:02.06, start: 0.000000, bitrate: 48 kb/s
[2026-03-14 19:38:36] [VOICE_STDERR]   Stream #0:0: Audio: mp3 (mp3float), 24000 Hz, mono, fltp, 48 kb/s
[2026-03-14 19:38:36] [INFO] Voice line completed: Attempting restart.
[2026-03-14 19:38:36] [INFO] Failure voice step 2/3 success=True line=Attempting restart.
[2026-03-14 19:38:37] [INFO] Trying voice line 'Restart failed.' using voice --text --mode
[2026-03-14 19:38:40] [VOICE_STDOUT] WARNING: malfunction post-process failed, using clean TTS: No module named 'pydub'
[2026-03-14 19:38:40] [VOICE_STDERR] [mp3 @ 0000014DEC270A00] Estimating duration from bitrate, this may be inaccurate
[2026-03-14 19:38:40] [VOICE_STDERR] Input #0, mp3, from 'C:/Users/anden/AppData/Local/Temp/tmpxr95662d.mp3':
[2026-03-14 19:38:40] [VOICE_STDERR]   Duration: 00:00:01.99, start: 0.000000, bitrate: 48 kb/s
[2026-03-14 19:38:40] [VOICE_STDERR]   Stream #0:0: Audio: mp3 (mp3float), 24000 Hz, mono, fltp, 48 kb/s
[2026-03-14 19:38:40] [INFO] Voice line completed: Restart failed.
[2026-03-14 19:38:40] [INFO] Failure voice step 3/3 success=True line=Restart failed.
[2026-03-14 19:38:41] [INFO] Diagnostics process launched.
